<svg width="499" height="490" viewBox="0 0 499 490" fill="none" xmlns="http://www.w3.org/2000/svg">
<path d="M247.374 126.857H174.13C167.5 126.857 162.105 133.068 162.105 140.702V147.409C162.105 152.144 168.492 152.152 168.492 147.409V140.702C168.492 137.122 171.021 134.21 174.13 134.21H247.374C250.483 134.21 253.013 137.122 253.013 140.702V198.04C253.013 201.62 250.483 204.532 247.374 204.532H174.13C171.021 204.532 168.492 201.62 168.492 198.04V165.441C168.492 160.707 162.105 160.699 162.105 165.441V198.04C162.105 205.675 167.5 211.886 174.13 211.886H247.374C254.005 211.886 259.399 205.675 259.399 198.04V140.702C259.399 133.068 254.005 126.857 247.374 126.857Z" fill="#008000"/>
<path d="M210.683 159.856C208.931 159.872 207.515 161.512 207.515 163.533V166.892L179.914 185.27C177.16 187.103 178.328 192.13 181.512 192.13H239.992C243.174 192.13 244.347 187.106 241.591 185.27L213.902 166.834V166.303C216.397 164.978 219.158 162.083 219.158 156.699C219.158 150.875 215.343 146.482 210.285 146.482C205.391 146.482 201.411 151.066 201.411 156.699C201.411 161.434 207.798 161.442 207.798 156.699C207.798 155.12 208.913 153.836 210.285 153.836C211.432 153.836 212.772 154.586 212.772 156.699C212.772 159.094 211.321 159.704 210.683 159.856ZM193.413 184.776L210.752 173.231L228.091 184.776H193.413V184.776Z" fill="#45B649"/>
<path d="M199.895 234.363H177.878C176.422 228.974 172.05 225.049 166.897 225.049C160.558 225.049 155.401 230.987 155.401 238.285C155.401 245.584 160.558 251.521 166.897 251.521C172.205 251.521 176.682 247.356 177.998 241.717H199.895C204.006 241.717 204.014 234.363 199.895 234.363ZM166.897 244.168C164.079 244.168 161.787 241.529 161.787 238.285C161.787 235.041 164.079 232.402 166.897 232.402C169.714 232.402 172.006 235.041 172.006 238.285C172.006 241.529 169.714 244.168 166.897 244.168Z" fill="#45B649"/>
<path d="M354.807 178.477C356.571 178.477 358 176.83 358 174.8V147.347C358 145.316 356.571 143.67 354.807 143.67H342.672C338.56 143.67 338.553 151.023 342.672 151.023H351.613V171.123H335.008V164.26H338.201C342.313 164.26 342.32 156.906 338.201 156.906H324.576C320.464 156.906 320.457 164.26 324.576 164.26H328.621V171.123H305.629V164.26H308.822C312.934 164.26 312.941 156.906 308.822 156.906H295.197C291.085 156.906 291.078 164.26 295.197 164.26H299.242V171.123H281.785V151.023H328.621C332.733 151.023 332.74 143.67 328.621 143.67H281.505V117.683C281.505 109.035 275.394 102 267.884 102H153.621C146.11 102 140 109.035 140 117.683V337.317C140 345.965 146.11 353 153.621 353H220.729H233.033H267.884C275.395 353 281.505 345.965 281.505 337.317V311.39H339.309V349.323C339.309 351.354 340.739 353 342.503 353H354.807C356.571 353 358 351.354 358 349.323V307.898C358 307.867 357.997 307.837 357.996 307.806C357.997 307.775 358 307.745 358 307.713V288.989C358 276.637 349.272 266.587 338.544 266.587H281.505V178.477H354.807ZM223.923 345.646V311.39H229.84V345.646H223.923ZM275.118 337.317C275.118 341.91 271.873 345.646 267.884 345.646H236.227V311.39H275.118V337.317ZM345.696 345.646V311.39H351.613V345.646H345.696ZM351.613 288.989V290.005H329.047C324.935 290.005 324.928 297.358 329.047 297.358H351.613V304.036H223.923V297.358H313.293C317.405 297.358 317.412 290.005 313.293 290.005H223.923C223.923 281.45 229.195 273.941 236.992 273.941H338.544C345.75 273.941 351.613 280.691 351.613 288.989ZM236.992 266.587C226.264 266.587 217.536 276.637 217.536 288.989V307.713V345.646H153.621C149.632 345.646 146.387 341.91 146.387 337.317V117.683C146.387 113.09 149.632 109.354 153.621 109.354H267.884C271.873 109.354 275.118 113.09 275.118 117.683V266.587H236.992V266.587Z" fill="#008000"/>
</svg>
