<svg width="499" height="490" viewBox="0 0 499 490" fill="none" xmlns="http://www.w3.org/2000/svg">
<path d="M256.885 330.701V211.677H274.414C277.733 211.666 280.914 208.217 283.26 202.088C285.606 195.959 286.926 187.65 286.93 178.983C286.929 177.151 286.65 175.395 286.155 174.1C285.659 172.805 284.986 172.077 284.285 172.076H213.715C213.014 172.077 212.341 172.805 211.845 174.1C211.35 175.395 211.071 177.151 211.07 178.983C211.074 187.652 212.394 195.963 214.741 202.092C217.089 208.222 220.271 211.669 223.59 211.677H241.119V330.701C238.45 332.542 236.087 336.636 234.401 342.346C232.714 348.056 231.796 355.062 231.791 362.274C231.791 364.106 232.07 365.862 232.566 367.158C233.062 368.453 233.734 369.181 234.436 369.181H263.569C264.27 369.181 264.943 368.453 265.439 367.158C265.935 365.862 266.213 364.106 266.213 362.274C266.208 355.062 265.291 348.056 263.604 342.346C261.917 336.636 259.555 332.542 256.885 330.701V330.701ZM216.86 185.89H281.14C280.607 189.417 279.68 192.445 278.48 194.581C277.28 196.716 275.862 197.86 274.41 197.864H223.59C222.138 197.86 220.72 196.716 219.52 194.581C218.32 192.445 217.393 189.417 216.86 185.89V185.89ZM251.596 211.677V329.584H246.404V211.677H251.596ZM237.576 355.371C238.109 351.843 239.035 348.815 240.236 346.68C241.436 344.544 242.854 343.401 244.306 343.397H253.694C255.146 343.401 256.564 344.544 257.764 346.68C258.965 348.815 259.891 351.843 260.424 355.371H237.576Z" fill="#45B649"/>
<path d="M355.356 120H352.403C349.084 120.008 345.901 123.456 343.555 129.585C341.208 135.715 339.888 144.026 339.884 152.694V224.172C339.883 227.175 339.426 230.055 338.613 232.178C337.8 234.302 336.697 235.496 335.548 235.499H318.735C315.415 235.507 312.233 238.955 309.886 245.084C307.539 251.213 306.218 259.524 306.215 268.193V275.905C306.215 277.737 306.493 279.494 306.989 280.789C307.485 282.084 308.158 282.812 308.859 282.812H315.992L313.45 363.489C313.399 365.306 313.624 367.102 314.077 368.486C314.531 369.871 315.175 370.732 315.87 370.882C316.565 371.032 317.254 370.458 317.788 369.287C318.322 368.115 318.658 366.44 318.721 364.626L321.29 282.871H344.723L348.602 364.906C348.679 366.585 348.989 368.131 349.474 369.252C349.958 370.373 350.583 370.99 351.23 370.988C351.34 370.989 351.449 370.971 351.558 370.933C351.903 370.822 352.236 370.535 352.538 370.088C352.84 369.641 353.105 369.043 353.319 368.328C353.533 367.613 353.69 366.795 353.783 365.92C353.875 365.046 353.901 364.133 353.858 363.233L350.014 281.951C352.299 280.385 354.322 276.887 355.766 272.004C357.211 267.121 357.996 261.127 358 254.956V126.907C358 126 357.932 125.101 357.799 124.263C357.666 123.425 357.471 122.663 357.226 122.022C356.98 121.38 356.689 120.872 356.368 120.525C356.047 120.178 355.703 119.999 355.356 120V120ZM352.711 254.956C352.709 258.699 352.139 262.286 351.126 264.933C350.112 267.579 348.739 269.068 347.306 269.073H342.884C342.766 269.03 342.648 269.009 342.529 269.01H311.504V268.221C311.506 263.215 312.269 258.415 313.624 254.876C314.98 251.336 316.818 249.345 318.735 249.34H335.548C338.099 249.332 340.546 246.68 342.351 241.967C344.155 237.255 345.17 230.865 345.173 224.2V152.694C345.176 147.689 345.938 142.89 347.294 139.35C348.649 135.811 350.486 133.82 352.403 133.813H352.705L352.711 254.956Z" fill="#008000"/>
<path d="M179.265 235.499H162.452C161.303 235.496 160.2 234.302 159.387 232.178C158.574 230.055 158.117 227.175 158.116 224.172V152.694C158.112 144.026 156.792 135.716 154.445 129.586C152.098 123.457 148.916 120.009 145.597 120H142.644C142.297 119.999 141.953 120.178 141.632 120.525C141.311 120.872 141.02 121.38 140.774 122.022C140.529 122.663 140.334 123.425 140.201 124.263C140.068 125.101 140 126 140 126.907V254.956C140.004 261.126 140.79 267.118 142.235 272C143.679 276.881 145.701 280.377 147.986 281.943L144.142 363.245C144.099 364.145 144.125 365.058 144.217 365.932C144.31 366.806 144.467 367.624 144.681 368.339C144.895 369.055 145.16 369.653 145.462 370.1C145.764 370.547 146.097 370.834 146.442 370.945C146.55 370.983 146.659 371.001 146.768 371C147.413 370.998 148.035 370.382 148.518 369.266C149.001 368.15 149.311 366.613 149.39 364.942L153.269 282.906H176.702L179.279 364.662C179.342 366.476 179.678 368.151 180.212 369.322C180.746 370.494 181.435 371.067 182.13 370.917C182.825 370.767 183.469 369.906 183.923 368.522C184.376 367.137 184.601 365.341 184.55 363.525L182.008 282.812H189.141C189.842 282.812 190.515 282.084 191.011 280.789C191.507 279.494 191.785 277.737 191.785 275.905V268.193C191.782 259.524 190.461 251.213 188.114 245.084C185.767 238.955 182.585 235.507 179.265 235.499V235.499ZM186.496 268.998H155.471C155.354 268.997 155.237 269.019 155.12 269.062H150.694C149.262 269.057 147.889 267.57 146.876 264.926C145.862 262.282 145.292 258.697 145.289 254.956V133.813H145.591C147.508 133.82 149.345 135.811 150.7 139.35C152.056 142.89 152.818 147.689 152.82 152.694V224.172C152.824 230.837 153.839 237.227 155.643 241.94C157.448 246.653 159.894 249.304 162.446 249.312H179.265C181.182 249.318 183.02 251.308 184.376 254.848C185.731 258.388 186.494 263.187 186.496 268.193V268.998Z" fill="#008000"/>
</svg>
