<svg width="499" height="490" viewBox="0 0 499 490" fill="none" xmlns="http://www.w3.org/2000/svg">
<path d="M177.469 134.297H197.906C198.81 134.297 199.676 133.884 200.315 133.148C200.954 132.413 201.312 131.415 201.312 130.375C201.312 129.335 200.954 128.337 200.315 127.602C199.676 126.866 198.81 126.453 197.906 126.453H177.469C176.565 126.453 175.699 126.866 175.06 127.602C174.421 128.337 174.062 129.335 174.062 130.375C174.062 131.415 174.421 132.413 175.06 133.148C175.699 133.884 176.565 134.297 177.469 134.297V134.297Z" fill="#45B649"/>
<path d="M170.656 149.984H204.719C205.622 149.984 206.489 149.571 207.127 148.836C207.766 148.1 208.125 147.103 208.125 146.062C208.125 145.022 207.766 144.025 207.127 143.289C206.489 142.554 205.622 142.141 204.719 142.141H170.656C169.753 142.141 168.886 142.554 168.248 143.289C167.609 144.025 167.25 145.022 167.25 146.062C167.25 147.103 167.609 148.1 168.248 148.836C168.886 149.571 169.753 149.984 170.656 149.984V149.984Z" fill="#45B649"/>
<path d="M204.719 181.359H191.094C190.19 181.359 189.324 181.773 188.685 182.508C188.046 183.244 187.688 184.241 187.688 185.281V208.812C187.688 209.853 188.046 210.85 188.685 211.586C189.324 212.321 190.19 212.734 191.094 212.734H204.719C205.622 212.734 206.489 212.321 207.127 211.586C207.766 210.85 208.125 209.853 208.125 208.812V185.281C208.125 184.241 207.766 183.244 207.127 182.508C206.489 181.773 205.622 181.359 204.719 181.359ZM201.312 204.891H194.5V189.203H201.312V204.891Z" fill="#45B649"/>
<path d="M238.781 134.297H259.219C260.122 134.297 260.989 133.884 261.627 133.148C262.266 132.413 262.625 131.415 262.625 130.375C262.625 129.335 262.266 128.337 261.627 127.602C260.989 126.866 260.122 126.453 259.219 126.453H238.781C237.878 126.453 237.011 126.866 236.373 127.602C235.734 128.337 235.375 129.335 235.375 130.375C235.375 131.415 235.734 132.413 236.373 133.148C237.011 133.884 237.878 134.297 238.781 134.297Z" fill="#45B649"/>
<path d="M231.969 149.984H266.031C266.935 149.984 267.801 149.571 268.44 148.836C269.079 148.1 269.438 147.103 269.438 146.062C269.438 145.022 269.079 144.025 268.44 143.289C267.801 142.554 266.935 142.141 266.031 142.141H231.969C231.065 142.141 230.199 142.554 229.56 143.289C228.921 144.025 228.562 145.022 228.562 146.062C228.562 147.103 228.921 148.1 229.56 148.836C230.199 149.571 231.065 149.984 231.969 149.984Z" fill="#45B649"/>
<path d="M266.031 181.359H252.406C251.503 181.359 250.636 181.773 249.998 182.508C249.359 183.244 249 184.241 249 185.281V208.812C249 209.853 249.359 210.85 249.998 211.586C250.636 212.321 251.503 212.734 252.406 212.734H266.031C266.935 212.734 267.801 212.321 268.44 211.586C269.079 210.85 269.438 209.853 269.438 208.812V185.281C269.438 184.241 269.079 183.244 268.44 182.508C267.801 181.773 266.935 181.359 266.031 181.359ZM262.625 204.891H255.812V189.203H262.625V204.891Z" fill="#45B649"/>
<path d="M300.094 134.297H320.531C321.435 134.297 322.301 133.884 322.94 133.148C323.579 132.413 323.938 131.415 323.938 130.375C323.938 129.335 323.579 128.337 322.94 127.602C322.301 126.866 321.435 126.453 320.531 126.453H300.094C299.19 126.453 298.324 126.866 297.685 127.602C297.046 128.337 296.688 129.335 296.688 130.375C296.688 131.415 297.046 132.413 297.685 133.148C298.324 133.884 299.19 134.297 300.094 134.297Z" fill="#45B649"/>
<path d="M293.281 149.984H327.344C328.247 149.984 329.114 149.571 329.752 148.836C330.391 148.1 330.75 147.103 330.75 146.062C330.75 145.022 330.391 144.025 329.752 143.289C329.114 142.554 328.247 142.141 327.344 142.141H293.281C292.378 142.141 291.511 142.554 290.873 143.289C290.234 144.025 289.875 145.022 289.875 146.062C289.875 147.103 290.234 148.1 290.873 148.836C291.511 149.571 292.378 149.984 293.281 149.984Z" fill="#45B649"/>
<path d="M327.344 181.359H313.719C312.815 181.359 311.949 181.773 311.31 182.508C310.671 183.244 310.312 184.241 310.312 185.281V208.812C310.312 209.853 310.671 210.85 311.31 211.586C311.949 212.321 312.815 212.734 313.719 212.734H327.344C328.247 212.734 329.114 212.321 329.752 211.586C330.391 210.85 330.75 209.853 330.75 208.812V185.281C330.75 184.241 330.391 183.244 329.752 182.508C329.114 181.773 328.247 181.359 327.344 181.359ZM323.938 204.891H317.125V189.203H323.938V204.891Z" fill="#45B649"/>
<path d="M177.469 248.031H197.906C198.81 248.031 199.676 247.618 200.315 246.883C200.954 246.147 201.312 245.15 201.312 244.109C201.312 243.069 200.954 242.072 200.315 241.336C199.676 240.601 198.81 240.188 197.906 240.188H177.469C176.565 240.188 175.699 240.601 175.06 241.336C174.421 242.072 174.062 243.069 174.062 244.109C174.062 245.15 174.421 246.147 175.06 246.883C175.699 247.618 176.565 248.031 177.469 248.031V248.031Z" fill="#45B649"/>
<path d="M170.656 263.719H204.719C205.622 263.719 206.489 263.306 207.127 262.57C207.766 261.835 208.125 260.837 208.125 259.797C208.125 258.757 207.766 257.759 207.127 257.024C206.489 256.288 205.622 255.875 204.719 255.875H170.656C169.753 255.875 168.886 256.288 168.248 257.024C167.609 257.759 167.25 258.757 167.25 259.797C167.25 260.837 167.609 261.835 168.248 262.57C168.886 263.306 169.753 263.719 170.656 263.719V263.719Z" fill="#45B649"/>
<path d="M204.719 295.094H191.094C190.19 295.094 189.324 295.507 188.685 296.242C188.046 296.978 187.688 297.975 187.688 299.016V322.547C187.688 323.587 188.046 324.585 188.685 325.32C189.324 326.056 190.19 326.469 191.094 326.469H204.719C205.622 326.469 206.489 326.056 207.127 325.32C207.766 324.585 208.125 323.587 208.125 322.547V299.016C208.125 297.975 207.766 296.978 207.127 296.242C206.489 295.507 205.622 295.094 204.719 295.094ZM201.312 318.625H194.5V302.938H201.312V318.625Z" fill="#45B649"/>
<path d="M238.781 248.031H259.219C260.122 248.031 260.989 247.618 261.627 246.883C262.266 246.147 262.625 245.15 262.625 244.109C262.625 243.069 262.266 242.072 261.627 241.336C260.989 240.601 260.122 240.188 259.219 240.188H238.781C237.878 240.188 237.011 240.601 236.373 241.336C235.734 242.072 235.375 243.069 235.375 244.109C235.375 245.15 235.734 246.147 236.373 246.883C237.011 247.618 237.878 248.031 238.781 248.031Z" fill="#45B649"/>
<path d="M269.438 259.797C269.438 258.757 269.079 257.759 268.44 257.024C267.801 256.288 266.935 255.875 266.031 255.875H231.969C231.065 255.875 230.199 256.288 229.56 257.024C228.921 257.759 228.562 258.757 228.562 259.797C228.562 260.837 228.921 261.835 229.56 262.57C230.199 263.306 231.065 263.719 231.969 263.719H266.031C266.935 263.719 267.801 263.306 268.44 262.57C269.079 261.835 269.438 260.837 269.438 259.797Z" fill="#45B649"/>
<path d="M266.031 295.094H252.406C251.503 295.094 250.636 295.507 249.998 296.242C249.359 296.978 249 297.975 249 299.016V322.547C249 323.587 249.359 324.585 249.998 325.32C250.636 326.056 251.503 326.469 252.406 326.469H266.031C266.935 326.469 267.801 326.056 268.44 325.32C269.079 324.585 269.438 323.587 269.438 322.547V299.016C269.438 297.975 269.079 296.978 268.44 296.242C267.801 295.507 266.935 295.094 266.031 295.094ZM262.625 318.625H255.812V302.938H262.625V318.625Z" fill="#45B649"/>
<path d="M344.375 110.766C344.375 109.725 344.016 108.728 343.377 107.992C342.739 107.257 341.872 106.844 340.969 106.844H157.031C156.128 106.844 155.261 107.257 154.623 107.992C153.984 108.728 153.625 109.725 153.625 110.766V338.234C153.625 339.275 153.984 340.272 154.623 341.008C155.261 341.743 156.128 342.156 157.031 342.156H340.969C341.872 342.156 342.739 341.743 343.377 341.008C344.016 340.272 344.375 339.275 344.375 338.234V110.766ZM337.562 114.688V220.578H283.062V114.688H337.562ZM221.75 228.422H276.25V334.312H221.75V228.422ZM276.25 114.688V220.578H221.75V114.688H276.25ZM214.938 114.688V220.578H160.438V114.688H214.938ZM214.938 334.312H160.438V228.422H214.938V334.312ZM337.562 334.312H283.062V228.422H337.562V334.312Z" fill="#008000"/>
<path d="M300.094 248.031H320.531C321.435 248.031 322.301 247.618 322.94 246.883C323.579 246.147 323.938 245.15 323.938 244.109C323.938 243.069 323.579 242.072 322.94 241.336C322.301 240.601 321.435 240.188 320.531 240.188H300.094C299.19 240.188 298.324 240.601 297.685 241.336C297.046 242.072 296.688 243.069 296.688 244.109C296.688 245.15 297.046 246.147 297.685 246.883C298.324 247.618 299.19 248.031 300.094 248.031Z" fill="#45B649"/>
<path d="M293.281 263.719H327.344C328.247 263.719 329.114 263.306 329.752 262.57C330.391 261.835 330.75 260.837 330.75 259.797C330.75 258.757 330.391 257.759 329.752 257.024C329.114 256.288 328.247 255.875 327.344 255.875H293.281C292.378 255.875 291.511 256.288 290.873 257.024C290.234 257.759 289.875 258.757 289.875 259.797C289.875 260.837 290.234 261.835 290.873 262.57C291.511 263.306 292.378 263.719 293.281 263.719Z" fill="#45B649"/>
<path d="M327.344 295.094H313.719C312.815 295.094 311.949 295.507 311.31 296.242C310.671 296.978 310.312 297.975 310.312 299.016V322.547C310.312 323.587 310.671 324.585 311.31 325.32C311.949 326.056 312.815 326.469 313.719 326.469H327.344C328.247 326.469 329.114 326.056 329.752 325.32C330.391 324.585 330.75 323.587 330.75 322.547V299.016C330.75 297.975 330.391 296.978 329.752 296.242C329.114 295.507 328.247 295.094 327.344 295.094ZM323.938 318.625H317.125V302.938H323.938V318.625Z" fill="#45B649"/>
</svg>
