<svg width="499" height="490" viewBox="0 0 499 490" fill="none" xmlns="http://www.w3.org/2000/svg">
<path d="M323.483 113C317.463 113 312.583 118.619 312.583 125.55V129.733H232.65C222.622 129.747 214.495 139.104 214.483 150.65V171.567H207.217C201.197 171.567 196.317 177.185 196.317 184.117V198.528C180.49 209.76 170.862 229.644 170.883 251.05V256.003C166.544 257.769 163.636 262.484 163.617 267.783V276.15C163.617 278.46 165.243 280.333 167.25 280.333H283.517C285.523 280.333 287.15 278.46 287.15 276.15V267.783C287.131 262.484 284.223 257.769 279.883 256.003V251.05C279.905 234.392 274.15 218.413 263.897 206.661C261.047 203.497 257.875 200.742 254.45 198.457V184.117C254.45 177.185 249.57 171.567 243.55 171.567H236.283V159.017C236.283 156.706 237.91 154.833 239.917 154.833H312.583V163.2C312.583 170.131 317.463 175.75 323.483 175.75H334.383V113H323.483ZM279.883 267.783V271.967H170.883V267.783C170.883 265.473 172.51 263.6 174.517 263.6H276.25C278.257 263.6 279.883 265.473 279.883 267.783ZM258.777 212.588C267.656 222.774 272.638 236.619 272.617 251.05V255.233H178.15V251.05C178.138 232.148 186.806 214.647 200.942 205.033H249.85C253.1 207.091 256.102 209.631 258.777 212.588ZM243.55 179.933C245.557 179.933 247.183 181.806 247.183 184.117V196.667H203.583V184.117C203.583 181.806 205.21 179.933 207.217 179.933H243.55ZM312.583 146.467H239.917C233.897 146.467 229.017 152.085 229.017 159.017V171.567H221.75V150.65C221.75 143.719 226.63 138.1 232.65 138.1H312.583V146.467ZM327.117 167.383H323.483C321.477 167.383 319.85 165.51 319.85 163.2V125.55C319.85 123.24 321.477 121.367 323.483 121.367H327.117V167.383Z" fill="#008000"/>
<path d="M225.383 288.7C223.377 288.7 221.75 290.573 221.75 292.883V309.617C221.75 311.927 223.377 313.8 225.383 313.8C227.39 313.8 229.017 311.927 229.017 309.617V292.883C229.017 290.573 227.39 288.7 225.383 288.7Z" fill="#45B649"/>
<path d="M225.383 322.167C223.377 322.167 221.75 324.04 221.75 326.35V343.083C221.75 345.394 223.377 347.267 225.383 347.267C227.39 347.267 229.017 345.394 229.017 343.083V326.35C229.017 324.04 227.39 322.167 225.383 322.167Z" fill="#45B649"/>
<path d="M268.983 305.433C266.977 305.433 265.35 307.306 265.35 309.617V326.35C265.35 328.66 266.977 330.533 268.983 330.533C270.99 330.533 272.617 328.66 272.617 326.35V309.617C272.617 307.306 270.99 305.433 268.983 305.433Z" fill="#45B649"/>
<path d="M239.917 305.433C237.91 305.433 236.283 307.306 236.283 309.617V326.35C236.283 328.66 237.91 330.533 239.917 330.533C241.923 330.533 243.55 328.66 243.55 326.35V309.617C243.55 307.306 241.923 305.433 239.917 305.433Z" fill="#45B649"/>
<path d="M210.85 305.433C208.843 305.433 207.217 307.306 207.217 309.617V326.35C207.217 328.66 208.843 330.533 210.85 330.533C212.857 330.533 214.483 328.66 214.483 326.35V309.617C214.483 307.306 212.857 305.433 210.85 305.433Z" fill="#45B649"/>
<path d="M181.783 305.433C179.777 305.433 178.15 307.306 178.15 309.617V326.35C178.15 328.66 179.777 330.533 181.783 330.533C183.79 330.533 185.417 328.66 185.417 326.35V309.617C185.417 307.306 183.79 305.433 181.783 305.433Z" fill="#45B649"/>
<path d="M196.317 288.7C194.31 288.7 192.683 290.573 192.683 292.883V309.617C192.683 311.927 194.31 313.8 196.317 313.8C198.323 313.8 199.95 311.927 199.95 309.617V292.883C199.95 290.573 198.323 288.7 196.317 288.7Z" fill="#45B649"/>
<path d="M254.45 288.7C252.443 288.7 250.817 290.573 250.817 292.883V309.617C250.817 311.927 252.443 313.8 254.45 313.8C256.457 313.8 258.083 311.927 258.083 309.617V292.883C258.083 290.573 256.457 288.7 254.45 288.7Z" fill="#45B649"/>
<path d="M254.45 322.167C252.443 322.167 250.817 324.04 250.817 326.35V343.083C250.817 345.394 252.443 347.267 254.45 347.267C256.457 347.267 258.083 345.394 258.083 343.083V326.35C258.083 324.04 256.457 322.167 254.45 322.167Z" fill="#45B649"/>
<path d="M196.317 322.167C194.31 322.167 192.683 324.04 192.683 326.35V343.083C192.683 345.394 194.31 347.267 196.317 347.267C198.323 347.267 199.95 345.394 199.95 343.083V326.35C199.95 324.04 198.323 322.167 196.317 322.167Z" fill="#45B649"/>
<path d="M210.85 338.9C208.843 338.9 207.217 340.773 207.217 343.083V359.817C207.217 362.127 208.843 364 210.85 364C212.857 364 214.483 362.127 214.483 359.817V343.083C214.483 340.773 212.857 338.9 210.85 338.9Z" fill="#45B649"/>
<path d="M239.917 338.9C237.91 338.9 236.283 340.773 236.283 343.083V359.817C236.283 362.127 237.91 364 239.917 364C241.923 364 243.55 362.127 243.55 359.817V343.083C243.55 340.773 241.923 338.9 239.917 338.9Z" fill="#45B649"/>
</svg>
