<svg width="499" height="490" viewBox="0 0 499 490" fill="none" xmlns="http://www.w3.org/2000/svg">
<path d="M245.009 336C250.865 335.987 256.612 335.157 261.671 333.593C266.731 332.028 270.924 329.784 273.829 327.087C276.541 324.66 277.981 321.893 278 319.072C278.019 316.25 276.616 313.478 273.937 311.041C273.846 310.96 273.751 310.881 273.649 310.804L249.689 293.187C249.147 292.804 248.438 292.497 247.623 292.29C246.808 292.084 245.911 291.985 245.009 292.002V292.002C244.107 291.985 243.211 292.084 242.397 292.289C241.583 292.495 240.874 292.802 240.33 293.184L216.37 310.794C216.262 310.875 216.161 310.936 216.067 311.021C213.403 313.41 211.998 316.136 212 318.911C212 328.179 227.116 336 245.009 336ZM225.901 314.192L245.002 300.117L264.12 314.246C265.723 315.745 266.542 317.444 266.491 319.167C266.44 320.89 265.522 322.575 263.831 324.046C261.937 325.811 259.201 327.28 255.896 328.305C252.592 329.33 248.837 329.875 245.009 329.886C233.566 329.886 223.528 324.752 223.528 318.9C223.533 317.248 224.35 315.626 225.901 314.194V314.192Z" fill="#45B649"/>
<path d="M243.676 327C248.524 327.002 253.176 325.96 256.611 324.101C260.047 322.242 261.984 319.719 262 317.084C262 316.266 261.402 315.482 260.338 314.903C259.273 314.325 257.829 314 256.324 314C254.819 314 253.375 314.325 252.31 314.903C251.246 315.482 250.648 316.266 250.648 317.084C250.636 318.083 249.895 319.039 248.588 319.741C247.281 320.444 245.514 320.836 243.676 320.832C242.171 320.832 240.727 321.156 239.662 321.735C238.598 322.313 238 323.098 238 323.916C238 324.734 238.598 325.518 239.662 326.097C240.727 326.675 242.171 327 243.676 327V327Z" fill="#45B649"/>
<path d="M175 332.945V300.055C175 299.245 174.473 298.468 173.536 297.895C172.598 297.322 171.326 297 170 297C168.674 297 167.402 297.322 166.464 297.895C165.527 298.468 165 299.245 165 300.055V332.945C165 333.755 165.527 334.532 166.464 335.105C167.402 335.678 168.674 336 170 336C171.326 336 172.598 335.678 173.536 335.105C174.473 334.532 175 333.755 175 332.945V332.945Z" fill="#45B649"/>
<path d="M170 294C171.326 294 172.598 293.717 173.536 293.214C174.473 292.711 175 292.028 175 291.316V289.684C175 288.972 174.473 288.289 173.536 287.786C172.598 287.283 171.326 287 170 287C168.674 287 167.402 287.283 166.464 287.786C165.527 288.289 165 288.972 165 289.684V291.316C165 292.028 165.527 292.711 166.464 293.214C167.402 293.717 168.674 294 170 294V294Z" fill="#45B649"/>
<path d="M141.939 371H179.224C180.738 370.978 182.175 370.638 183.229 370.053C184.282 369.467 184.869 368.683 184.862 367.868V357.843H305.138V367.868C305.131 368.683 305.718 369.467 306.771 370.053C307.825 370.638 309.262 370.978 310.776 371H348.061C349.606 370.984 351.082 370.651 352.186 370.069C353.29 369.487 353.939 368.699 354 367.868V230.865C353.928 227.356 351.292 224.003 346.663 221.533C342.034 219.063 335.785 217.674 329.268 217.667H283.526V214.213C291.695 213.522 299.131 211.272 304.478 207.875C309.825 204.477 312.727 200.158 312.655 195.705V194.273C313.643 193.924 314.568 193.527 315.419 193.085C317.167 192.144 318.502 191.003 319.324 189.747C320.147 188.492 320.436 187.152 320.171 185.829C319.906 184.505 319.093 183.23 317.793 182.097C316.492 180.965 314.736 180.004 312.655 179.285V152.666C313.646 152.316 314.574 151.916 315.428 151.473C316.966 150.646 318.186 149.664 319.016 148.582C319.847 147.501 320.271 146.341 320.266 145.171C320.289 143.677 319.602 142.204 318.269 140.893C316.937 139.582 315.005 138.477 312.655 137.681V135.278C312.662 131.245 309.705 127.374 304.43 124.512C299.155 121.649 291.991 120.027 284.503 120H205.497C198.009 120.027 190.845 121.649 185.57 124.512C180.295 127.374 177.338 131.245 177.345 135.278V137.679C176.354 138.029 175.426 138.427 174.572 138.869C172.825 139.812 171.493 140.953 170.672 142.209C169.852 143.466 169.564 144.805 169.83 146.129C170.096 147.453 170.909 148.728 172.209 149.861C173.509 150.994 175.264 151.955 177.345 152.675V179.287C176.353 179.637 175.425 180.037 174.572 180.481C172.825 181.424 171.493 182.565 170.672 183.821C169.852 185.077 169.564 186.416 169.83 187.739C170.096 189.063 170.909 190.338 172.209 191.47C173.51 192.602 175.264 193.564 177.345 194.283V195.705C177.273 200.158 180.175 204.477 185.522 207.875C190.869 211.272 198.305 213.522 206.474 214.213V217.667H160.732C154.215 217.674 147.966 219.063 143.337 221.533C138.708 224.003 136.072 227.356 136 230.865V367.868C136.061 368.699 136.71 369.487 137.814 370.069C138.918 370.651 140.394 370.984 141.939 371V371ZM188.621 135.278C188.611 132.855 190.378 130.528 193.539 128.804C196.7 127.08 200.998 126.098 205.497 126.073H284.503C289.002 126.098 293.3 127.08 296.461 128.804C299.622 130.528 301.389 132.855 301.379 135.278V136.194H188.621V135.278ZM182.52 143.166C183.141 142.823 183.908 142.566 184.754 142.417C185.242 142.324 185.754 142.273 186.272 142.266H303.728C303.817 142.266 303.905 142.298 304.01 142.3C305.361 142.348 306.627 142.67 307.556 143.199C308.486 143.729 309.009 144.428 309.022 145.157C309.02 145.762 308.662 146.352 308.001 146.841C307.34 147.331 306.409 147.695 305.34 147.883C305.323 147.885 305.307 147.794 305.289 147.797C304.776 147.853 304.249 147.865 303.728 147.833H186.272C185.736 147.866 185.193 147.852 184.666 147.79C183.606 147.613 182.678 147.259 182.016 146.78C181.354 146.3 180.992 145.72 180.981 145.123C180.981 144.758 181.117 144.396 181.382 144.06C181.646 143.724 182.033 143.42 182.52 143.166V143.166ZM301.379 153.905V160.484H188.621V153.905H301.379ZM186.272 189.835C185.716 189.801 185.174 189.72 184.666 189.595C183.596 189.397 182.667 189.025 182.007 188.53C181.347 188.036 180.989 187.443 180.981 186.834C180.981 186.071 181.539 185.338 182.535 184.795C183.144 184.433 183.905 184.154 184.754 183.981C185.236 183.866 185.748 183.792 186.272 183.762H203.896C205.391 183.762 206.825 183.442 207.882 182.873C208.94 182.303 209.534 181.531 209.534 180.726C209.534 179.921 208.94 179.148 207.882 178.579C206.825 178.009 205.391 177.69 203.896 177.69H188.621V166.556H301.379V177.69H228.903C227.407 177.69 225.973 178.009 224.916 178.579C223.859 179.148 223.265 179.921 223.265 180.726C223.265 181.531 223.859 182.303 224.916 182.873C225.973 183.442 227.407 183.762 228.903 183.762H303.728C303.822 183.762 303.911 183.849 304.01 183.852C305.367 183.907 306.635 184.235 307.563 184.77C308.491 185.306 309.012 186.009 309.022 186.742C309.024 187.502 308.465 188.231 307.47 188.77C306.871 189.131 306.124 189.413 305.289 189.593C304.796 189.718 304.269 189.799 303.728 189.835H186.272ZM188.583 195.907H301.417C301.417 202.486 290.863 208.488 277.883 208.488C277.153 208.476 276.426 208.543 275.744 208.685C275.063 208.828 274.441 209.042 273.916 209.315C273.39 209.589 272.972 209.916 272.685 210.278C272.398 210.64 272.249 211.029 272.245 211.423V217.667H217.75V211.423C217.747 211.029 217.597 210.64 217.31 210.278C217.023 209.916 216.605 209.589 216.08 209.315C215.554 209.042 214.933 208.828 214.251 208.685C213.57 208.543 212.842 208.476 212.112 208.488C199.137 208.488 188.583 202.486 188.583 195.907ZM147.276 230.865C147.345 228.966 148.792 227.157 151.307 225.825C153.822 224.494 157.205 223.745 160.732 223.74H329.268C332.795 223.745 336.178 224.494 338.693 225.825C341.208 227.157 342.655 228.966 342.724 230.865V272.827H310.776V243.142C310.776 238.119 303.226 233.861 293.9 233.861H196.1C186.774 233.861 179.224 238.119 179.224 243.142V272.827H147.276V230.865ZM215.561 253.597H227.889C229.384 253.597 230.818 253.277 231.875 252.707C232.933 252.138 233.527 251.366 233.527 250.56C233.527 249.755 232.933 248.983 231.875 248.413C230.818 247.844 229.384 247.524 227.889 247.524H227.147V239.933H262.853V247.524H262.111C260.616 247.524 259.182 247.844 258.124 248.413C257.067 248.983 256.473 249.755 256.473 250.56C256.473 251.366 257.067 252.138 258.124 252.707C259.182 253.277 260.616 253.597 262.111 253.597H274.439C275.935 253.597 277.369 253.277 278.426 252.707C279.483 252.138 280.077 251.366 280.077 250.56C280.077 249.755 279.483 248.983 278.426 248.413C277.369 247.844 275.935 247.524 274.439 247.524H274.129V239.933H293.9C295.422 239.974 296.857 240.331 297.901 240.93C298.945 241.528 299.518 242.321 299.5 243.142V272.827H190.5V243.142C190.482 242.321 191.055 241.528 192.099 240.93C193.143 240.331 194.578 239.974 196.1 239.933H215.871V247.524H215.561C214.065 247.524 212.631 247.844 211.574 248.413C210.517 248.983 209.923 249.755 209.923 250.56C209.923 251.366 210.517 252.138 211.574 252.707C212.631 253.277 214.065 253.597 215.561 253.597V253.597ZM147.276 278.899H342.724V364.927H316.414V354.832C316.416 354.024 315.824 353.248 314.767 352.675C313.711 352.101 312.276 351.776 310.776 351.77H179.224C177.724 351.776 176.289 352.101 175.233 352.675C174.176 353.248 173.584 354.024 173.586 354.832V364.927H147.276V278.899Z" fill="#008000"/>
</svg>
