<svg width="499" height="490" viewBox="0 0 499 490" fill="none" xmlns="http://www.w3.org/2000/svg">
<g clip-path="url(#clip0)">
<path d="M248.794 286.46C239.25 286.46 231.487 296.618 231.487 309.098C231.487 321.581 239.25 331.744 248.794 331.744C258.34 331.744 266.104 321.581 266.104 309.098C266.104 296.618 258.339 286.46 248.794 286.46Z" fill="#45B649"/>
<path d="M291.02 255.616C279.753 240.834 264.754 232.689 248.794 232.689C232.894 232.689 217.937 240.78 206.672 255.469C202.123 261.412 202.115 271.095 206.654 277.049C208.858 279.947 211.794 281.538 214.918 281.538C218.028 281.538 220.953 279.955 223.154 277.082C230.009 268.139 239.115 263.213 248.794 263.213C258.509 263.213 267.639 268.17 274.499 277.166C276.704 280.056 279.638 281.652 282.759 281.652C285.872 281.652 288.795 280.069 290.998 277.195C295.554 271.252 295.562 261.574 291.02 255.616Z" fill="#008000"/>
<path d="M345.265 184.647C319.504 150.915 285.241 132.344 248.794 132.344C212.395 132.344 178.167 150.872 152.414 184.524C147.865 190.467 147.861 200.149 152.408 206.103C154.611 208.987 157.542 210.572 160.66 210.572C163.776 210.572 166.704 208.993 168.907 206.111C190.254 178.221 218.624 162.857 248.794 162.857C279.008 162.857 307.406 178.252 328.757 206.217C330.961 209.102 333.896 210.694 337.013 210.694C340.128 210.694 343.055 209.106 345.257 206.229C349.808 200.281 349.813 190.595 345.265 184.647Z" fill="#008000"/>
<path d="M317.455 221.021C299.118 197.007 274.734 183.783 248.794 183.783C222.901 183.783 198.553 196.965 180.232 220.895C178.025 223.775 176.811 227.605 176.806 231.684C176.806 235.758 178.016 239.593 180.219 242.476C182.422 245.362 185.354 246.954 188.472 246.954C191.586 246.954 194.513 245.366 196.72 242.493C210.638 224.316 229.132 214.303 248.794 214.303C268.496 214.303 287.016 224.351 300.943 242.59C303.15 245.48 306.08 247.072 309.2 247.072C312.315 247.072 315.244 245.484 317.444 242.607C319.647 239.727 320.865 235.897 320.866 231.818C320.869 227.74 319.657 223.909 317.455 221.021Z" fill="#45B649"/>
</g>
<defs>
<clipPath id="clip0">
<rect width="200" height="200" fill="white" transform="translate(149 132)"/>
</clipPath>
</defs>
</svg>
